PathFileType  4	(X/Y/Z) C:\Users\antoi\Documents\MyRepositories\mobilecap\ResultsAnalysis
DataRate	CameraRate	NumFrames	NumMarkers	Units	OrigDataRate	OrigDataStartFrame	OrigNumFrames
100.0	100.0	4	51	mm	100.0	98	261
Frame#	Time	r_knee			r_shank_antsup			r_ankle			r_calc			r_5meta			r_toe			L_knee			L_shank_antsup			L_ankle			L_calc			L_5meta			L_toe			r_sh2			r_sh3			r_sh4			L_sh2			L_sh3			r_thigh1			r_thigh2			r_thigh3			r_thigh4			r_thigh5			L_thigh1			L_thigh2			L_thigh3			L_thigh4			r.ASIS			r.PSIS			L.ASIS			L.PSIS			C7			R_Shoulder			L_Shoulder			R_Sternum			L_Sternum			R_humerus			R_elbow_med			R_elbow_lat			R_forearm			R_wrist_radius			R_wrist_ulna			L_humerus			L_elbow_med			L_elbow_lat			L_forearm			L_wrist_radius			L_wrist_ulna			R_HJC			L_HJC			R_HJC_reg			L_HJC_reg			
		X1	Y1	Z1	X2	Y2	Z2	X3	Y3	Z3	X4	Y4	Z4	X5	Y5	Z5	X6	Y6	Z6	X7	Y7	Z7	X8	Y8	Z8	X9	Y9	Z9	X10	Y10	Z10	X11	Y11	Z11	X12	Y12	Z12	X13	Y13	Z13	X14	Y14	Z14	X15	Y15	Z15	X16	Y16	Z16	X17	Y17	Z17	X18	Y18	Z18	X19	Y19	Z19	X20	Y20	Z20	X21	Y21	Z21	X22	Y22	Z22	X23	Y23	Z23	X24	Y24	Z24	X25	Y25	Z25	X26	Y26	Z26	X27	Y27	Z27	X28	Y28	Z28	X29	Y29	Z29	X30	Y30	Z30	X31	Y31	Z31	X32	Y32	Z32	X33	Y33	Z33	X34	Y34	Z34	X35	Y35	Z35	X36	Y36	Z36	X37	Y37	Z37	X38	Y38	Z38	X39	Y39	Z39	X40	Y40	Z40	X41	Y41	Z41	X42	Y42	Z42	X43	Y43	Z43	X44	Y44	Z44	X45	Y45	Z45	X46	Y46	Z46	X47	Y47	Z47	X48	Y48	Z48	X49	Y49	Z49	X50	Y50	Z50	X51	Y51	Z51	

98	0.97000000	-926.66107	879.46490	-412.63497	-929.84475	777.05195	-419.61920	-1163.65655	525.45194	-450.42862	-1258.32199	535.78118	-503.07201	-1126.03900	385.72934	-420.21823	-1057.35436	383.32541	-477.23511	-943.16004	886.24857	-753.19109	-975.95044	804.40928	-771.43358	-1163.92415	532.02989	-700.33619	-1253.26326	536.99128	-638.93759	-1122.75921	394.96793	-727.01056	-1054.38002	387.92114	-667.74943	-1002.90306	691.78735	-398.71353	-974.79831	823.77099	-379.10154	-1063.81470	747.36442	-380.56894	-1048.83405	855.01952	-757.29233	-1104.28449	747.13031	-743.73741	-862.69096	1200.28972	-392.57268	-850.25710	1091.49562	-402.70500	-898.93929	1058.72377	-371.10847	-972.91002	1182.31148	-385.12479	-951.77452	1069.57317	-386.30899	-866.10927	1172.06184	-763.16615	-853.67286	1032.27424	-756.93572	-975.15968	1161.75263	-777.37717	-968.16634	1024.26921	-771.12458	-844.76697	1403.55854	-445.82621	-1019.43607	1455.55289	-504.88175	-853.01754	1406.20592	-690.89248	-1025.31632	1460.41823	-617.37456	-790.25592	1955.62592	-573.18119	-754.04460	1893.75808	-418.83346	-755.08629	1891.68156	-723.17817	-699.66712	1832.24134	-540.84562	-699.91530	1829.15625	-595.26061	-689.13707	1792.79104	-334.35466	-643.21210	1581.68549	-298.51752	-634.04740	1640.76274	-230.20159	-488.34431	1708.39860	-289.38328	-429.76283	1757.33696	-342.91377	-410.65270	1725.80798	-314.04442	-709.33883	1812.46379	-810.93447	-596.08597	1583.31572	-799.51823	-572.15402	1640.21297	-863.00653	-503.35573	1669.76489	-841.01673	-350.28866	1708.23593	-758.72751	-334.11404	1675.95323	-778.22824	-947.44206	1307.00102	-462.00716	-957.74503	1317.46312	-668.44597	-918.98173	1334.63251	-479.30897	-927.42115	1341.61666	-640.78303	
99	0.98000000	-905.09916	891.09619	-412.56817	-909.20377	788.99945	-419.82790	-1145.68541	539.15301	-448.35207	-1237.26336	557.11579	-501.06166	-1117.24166	395.89836	-420.80527	-1046.96390	390.82443	-476.38665	-925.04138	897.64626	-756.06449	-957.57758	816.12385	-774.24910	-1148.48074	545.39543	-704.55845	-1236.26382	555.56210	-643.43678	-1113.70539	406.12882	-730.45607	-1045.01923	395.82796	-671.78442	-982.15152	704.00493	-397.65774	-953.70184	836.61163	-379.94982	-1043.21007	760.14005	-380.05887	-1030.41706	866.90791	-760.32928	-1086.25768	759.09177	-747.37705	-848.01679	1212.58425	-393.12080	-833.30346	1104.18461	-403.43243	-881.07869	1070.59012	-371.59865	-957.91933	1192.24038	-385.80652	-934.19059	1080.19660	-386.56534	-853.15606	1184.27793	-765.16756	-837.95861	1044.82796	-759.75807	-961.86470	1171.89813	-779.47372	-952.42390	1034.69938	-772.58010	-831.88857	1415.75624	-446.22004	-1005.89480	1466.82418	-506.60014	-839.40220	1417.97230	-691.38410	-1011.35969	1471.71727	-618.71187	-781.71295	1967.95204	-573.70177	-746.50158	1907.12006	-419.31632	-747.88783	1905.08919	-723.24269	-690.63307	1845.48559	-541.45936	-691.00560	1841.90007	-596.19708	-681.76526	1808.73615	-331.61086	-632.88909	1598.34097	-294.03695	-626.66330	1657.86756	-225.44154	-484.72337	1732.03619	-284.95794	-428.71789	1783.70669	-338.58386	-408.22218	1752.98043	-310.32317	-703.09828	1827.43471	-813.06290	-583.78155	1601.11823	-803.12208	-564.13874	1657.72625	-868.32673	-496.91049	1690.42125	-846.55769	-346.67079	1736.86799	-763.08370	-328.85394	1705.56477	-782.34495	-934.02074	1318.77180	-462.83528	-943.47899	1328.86080	-669.33348	-905.58425	1346.17333	-480.04386	-913.45949	1353.22360	-641.58923	
100	0.99000000	-882.67412	901.54069	-412.75485	-888.14426	799.68047	-420.62272	-1127.30419	551.95983	-447.01706	-1216.99318	574.48292	-498.68859	-1104.28265	407.29812	-420.03781	-1034.07067	399.47850	-476.11978	-906.02066	907.76953	-758.77925	-938.24374	826.40069	-776.83762	-1134.04820	558.99217	-708.46745	-1220.76150	571.07621	-646.75747	-1102.80284	419.20328	-735.58985	-1034.15930	406.23449	-677.69275	-961.22396	715.46740	-397.10445	-931.72645	847.93067	-380.80823	-1021.54033	771.65299	-379.05751	-1010.70823	877.95875	-763.89327	-1067.74445	770.59840	-751.19290	-833.53012	1224.04655	-393.54777	-816.61647	1116.28137	-403.62007	-863.49647	1081.58058	-371.83316	-943.38118	1201.33024	-386.52640	-916.85564	1089.84953	-386.45360	-840.10361	1195.77224	-766.70823	-821.96895	1056.77842	-762.04372	-948.57882	1181.24051	-781.25896	-936.27960	1044.24894	-774.18041	-819.06795	1426.54640	-446.86116	-992.69143	1477.08852	-508.12134	-826.18834	1428.46680	-691.96296	-997.84359	1481.99509	-620.03636	-772.86038	1979.09803	-574.31038	-738.56362	1919.07292	-419.84042	-740.14542	1917.08881	-723.41139	-681.40389	1857.04694	-541.94961	-682.04491	1853.18627	-597.25979	-674.75641	1823.12080	-328.68311	-623.15793	1613.41743	-289.51257	-619.87004	1673.17426	-220.76549	-481.38246	1753.09184	-280.46374	-427.90724	1807.31784	-333.78294	-406.17616	1777.33832	-306.23047	-696.09683	1840.88303	-815.44523	-572.83349	1617.06385	-808.07767	-556.08398	1673.33948	-873.93878	-490.47084	1708.68697	-851.79152	-343.21441	1762.63880	-768.12878	-323.92147	1732.09409	-786.85583	-920.95021	1329.34173	-463.72871	-929.82784	1339.15604	-670.26617	-892.51734	1356.59452	-480.90522	-899.95333	1363.67544	-642.41935	
101	1.00000000	-860.51521	910.94894	-412.94489	-867.09023	809.14775	-422.02213	-1108.35349	563.89794	-446.46630	-1198.42146	587.34205	-496.14469	-1085.95814	419.74479	-418.14781	-1017.39916	409.79218	-476.48930	-886.24403	916.92163	-761.60428	-918.82735	835.83329	-779.67535	-1119.92853	572.35034	-711.99177	-1206.11206	584.10673	-649.08029	-1090.09399	433.03065	-741.87200	-1021.18040	418.46293	-684.95861	-940.53753	725.98744	-397.48023	-909.41163	857.72212	-381.31168	-999.62801	781.89258	-377.91675	-990.72673	888.51325	-767.54077	-1049.41859	782.03671	-754.72645	-819.05980	1234.53409	-393.85171	-800.10344	1127.11965	-403.67465	-846.24347	1091.45751	-371.73399	-928.65984	1209.69136	-387.21355	-899.80226	1098.60466	-386.40808	-826.47645	1206.39735	-768.11699	-805.59452	1067.80509	-764.00739	-934.73213	1189.83739	-782.80614	-919.59500	1053.09881	-776.30165	-806.31098	1436.04013	-447.63854	-979.84987	1486.22211	-509.39234	-813.27707	1437.67848	-692.70088	-984.74866	1491.21282	-621.20196	-763.75505	1989.16341	-575.09818	-730.29922	1929.62613	-420.40045	-731.88403	1927.75677	-723.63950	-671.98545	1867.10849	-542.51967	-672.87064	1863.27371	-598.15160	-667.96986	1835.93214	-325.72162	-613.97185	1626.85708	-284.74362	-613.58029	1686.69717	-216.06121	-478.20385	1771.63654	-275.72238	-427.29888	1828.18123	-328.80162	-404.31677	1798.89673	-301.75005	-688.51487	1852.73141	-817.74715	-563.13493	1630.54608	-814.14292	-548.01956	1687.11185	-879.57548	-484.00084	1724.79958	-857.11440	-339.86226	1785.54531	-773.28262	-319.19750	1755.70092	-791.90963	-908.11530	1338.70091	-464.61009	-916.68257	1348.30079	-671.17051	-879.67537	1365.70630	-481.90678	-886.75058	1372.91492	-643.40119	
